<svg xmlns="http://www.w3.org/2000/svg" width="241" height="64" fill="none"><path fill="#E40521" d="M18.86 9.15.92 60.03h19.36l3.14-10.54h17.5l2.95 10.55h20.06l-8.01-22.72H26.4l9.04-28.17H18.86Z"/><path fill="#01438F" d="m44.17.21-10 31.3h20.2L44.17.21Z"/><path fill="#E40521" d="M90.51 41.27h3.96l-1.94-5.89h-.05l-1.97 5.89Zm-2.61-9.74h9.44l6.37 17.95h-7.19l-1.18-3.88h-5.78l-1.1 3.88h-6.83l6.27-17.95ZM111.55 30.19h-6.45v19.29h6.45V30.19ZM115.65 39.94h-2.35v-3.86h2.35v-1.13c.08-3.57 2.43-5.07 5.75-5.07 1.51 0 3.1.23 3.99.46v3.58c-.31-.08-.59-.18-1.41-.18s-1.64.57-1.64 1.65v.69h2.74v3.86h-2.74v9.54h-6.7v-9.54h.01ZM134.94 43.59h-.64c-1.33 0-2.86.13-2.86 1.52 0 .93.51 1.29 1.51 1.29 1.33 0 2-1.23 2-2.39v-.41l-.01-.01Zm-7.86-7.05c1.92-.54 3.07-.77 5.58-.77 3.68 0 8.16.67 8.16 5.55v8.15h-5.99v-1.93h-.05c-.89 1.52-2.53 2.24-4.35 2.24-2.48 0-4.88-1.13-4.88-3.94 0-4.11 3.68-4.94 6.88-4.94.9 0 1.92.13 2.51.18-.03-1.72-1.79-1.93-3.4-1.93-1.61 0-3.17.49-4.45 1.13v-3.76l-.01.02Z"/><path fill="#01438F" d="M153.44 41.58h-6.58v1.95h6.58v-1.95ZM168.01 38.57c-.92-.39-1.84-.57-2.61-.57-2.69 0-4.2 2.42-4.2 4.91 0 2.34 1.25 4.91 4.35 4.91.82 0 1.84-.26 2.58-.75l.18 2.16c-1 .46-2.15.54-3.02.54-3.94 0-6.65-3.11-6.65-6.87 0-3.99 2.66-6.87 6.65-6.87.97 0 2.23.23 2.92.52l-.2 2.01v.01ZM176.48 47.83c2.81 0 4.07-2.57 4.07-4.91 0-2.49-1.51-4.91-4.07-4.91-2.56 0-4.09 2.42-4.09 4.91 0 2.34 1.25 4.91 4.09 4.91Zm0-11.78c3.96 0 6.63 2.88 6.63 6.87 0 3.76-2.71 6.87-6.63 6.87s-6.65-3.11-6.65-6.87c0-3.98 2.66-6.87 6.65-6.87ZM188.85 30.19h-2.4v19.29h2.4V30.19ZM195.48 30.19h-2.4v19.29h2.4V30.19ZM208.18 41.66c0-2.01-1.18-3.65-3.25-3.65-2.35 0-3.33 1.96-3.51 3.65h6.76Zm1.56 7.28c-.92.33-1.97.85-4.12.85-4.63 0-6.75-2.83-6.75-7.1 0-3.88 2.43-6.63 6.11-6.63 4.35 0 5.76 3.19 5.76 7.41h-9.31c0 2.6 2.02 4.37 4.3 4.37 1.59 0 3.43-.82 4.02-1.31v2.42l-.01-.01ZM223.17 43.07c0-2.73-1.25-5.07-3.81-5.07s-3.63 2.65-3.63 4.89c0 2.47 1.38 4.63 3.63 4.63s3.81-2.01 3.81-4.45Zm2.4 5.84c0 3.99-2.05 6.27-6.73 6.27-1.38 0-2.59-.18-4.68-.9l.26-2.24c1.84.85 2.94 1.18 4.71 1.18 2.53 0 4.04-1.72 4.04-4.5v-1.29h-.05c-1.02 1.36-2.71 2.03-4.37 2.03-3.74 0-5.58-3.06-5.58-6.45s1.89-6.97 5.83-6.97c2.3 0 3.58.85 4.3 2.26h.05v-1.95h2.22v12.56ZM238.13 41.66c0-2.01-1.17-3.65-3.25-3.65-2.35 0-3.33 1.96-3.51 3.65h6.76Zm1.56 7.28c-.92.33-1.97.85-4.12.85-4.63 0-6.75-2.83-6.75-7.1 0-3.88 2.43-6.63 6.11-6.63 4.35 0 5.76 3.19 5.76 7.41h-9.31c0 2.6 2.02 4.37 4.3 4.37 1.58 0 3.43-.82 4.02-1.31v2.42l-.01-.01Z"/></svg>