<svg width="180" height="52" viewBox="0 0 180 52" fill="none" xmlns="http://www.w3.org/2000/svg">
<path d="M76.9224 8.97533V22.9408H73.7894V21.4926C73.213 22.2463 71.6613 23.1182 69.7992 23.1182C65.8091 23.1182 62.7943 20.1625 62.7943 15.9655C62.7943 11.7684 65.8091 8.82755 69.7992 8.82755C71.6465 8.82755 73.213 9.68469 73.7894 10.4384V8.99011H76.9224V8.97533ZM69.9175 11.7684C67.5973 11.7684 65.8091 13.6748 65.8091 15.9507C65.8091 18.2266 67.5973 20.1477 69.9175 20.1477C72.2377 20.1477 73.9076 18.2413 73.9076 15.9507C73.9076 13.6601 72.1785 11.7684 69.9175 11.7684Z" fill="black"/>
<path d="M79.7605 3.38916L82.8344 3.04926V22.9409H79.7605V3.38916Z" fill="black"/>
<path d="M85.4069 8.9753H97.1113V11.5911L89.0275 20.0295H97.6285V22.926H84.9192V20.2955L93.0177 11.8571H85.4216V8.94574L85.4069 8.9753Z" fill="black"/>
<path d="M99.754 3.38916L102.828 3.04926V10.5566C103.655 9.55172 105 8.8128 106.818 8.8128C110.143 8.8128 112.183 10.8374 112.183 14.5616V22.9409H109.109V15.2266C109.109 13.0542 108.192 11.7094 106.079 11.7094C104.084 11.7094 102.843 13.1872 102.843 15.2266V22.9409H99.7688V3.38916H99.754Z" fill="black"/>
<path d="M117.224 17.0147C117.549 18.7734 119.145 20.2069 121.17 20.2069C122.588 20.2069 123.741 19.7635 124.317 18.862H127.982C127.022 21.4039 124.317 23.1182 121.17 23.1182C117.106 23.1182 113.987 19.9261 113.987 15.9655C113.987 12.0049 117.106 8.82755 121.081 8.82755C125.056 8.82755 128.16 12.0049 128.16 15.9655C128.16 16.3349 128.145 16.6896 128.086 17.0295H117.224V17.0147ZM117.357 14.2807H124.79C124.347 12.8325 122.84 11.665 121.081 11.665C119.322 11.665 117.8 12.8325 117.357 14.2807Z" fill="black"/>
<path d="M131.749 3.22662C132.902 3.22662 133.818 4.14288 133.818 5.31037C133.818 6.47786 132.902 7.40889 131.749 7.40889C130.596 7.40889 129.68 6.47786 129.68 5.31037C129.68 4.14288 130.596 3.22662 131.749 3.22662ZM130.212 8.97539H133.286V22.9409H130.212V8.97539Z" fill="black"/>
<path d="M136.095 8.97549H139.169V10.5568C139.922 9.52229 141.267 8.81293 142.804 8.81293C144.518 8.81293 145.701 9.50751 146.469 10.7341C147.533 9.62573 148.671 8.81293 150.696 8.81293C153.533 8.81293 155.277 10.3499 155.277 13.7784V22.941H152.203V14.5617C152.203 12.744 151.361 11.7095 149.706 11.7095C148.287 11.7095 147.223 12.744 147.223 14.5617V22.941H144.149V14.5617C144.149 12.744 143.292 11.7095 141.666 11.7095C140.248 11.7095 139.183 12.744 139.183 14.5617V22.941H136.11V8.97549H136.095Z" fill="black"/>
<path d="M160.317 17.0148C160.642 18.7734 162.238 20.2069 164.263 20.2069C165.681 20.2069 166.834 19.7635 167.425 18.8621H171.076C170.13 21.4039 167.425 23.1182 164.263 23.1182C160.213 23.1182 157.08 19.9261 157.08 15.9655C157.08 12.0049 160.213 8.82758 164.174 8.82758C168.135 8.82758 171.268 12.0049 171.268 15.9655C171.268 16.335 171.238 16.6896 171.194 17.0295H160.332L160.317 17.0148ZM160.45 14.2808H167.883C167.44 12.8325 165.933 11.665 164.174 11.665C162.415 11.665 160.908 12.8325 160.465 14.2808H160.45Z" fill="black"/>
<path d="M173.32 8.9754H176.394V10.4237C177.074 9.53697 178.049 8.81284 180 8.81284V11.7685H179.719C177.768 11.7685 176.394 13.1724 176.394 15.2266V22.9409H173.32V8.9754Z" fill="black"/>
<path d="M63.5772 34.1724H66.5477V35.7094C67.1684 34.8966 68.395 34.0099 70.2423 34.0099C73.5969 34.0099 75.4294 35.9754 75.4294 39.5813V47.6798H72.459V40.2315C72.459 37.8522 71.4541 36.8325 69.5181 36.8325C67.5822 36.8325 66.5477 38.2513 66.5477 40.2315V47.6798H63.5772V34.1872V34.1724Z" fill="black"/>
<path d="M80.3647 41.9458C80.6898 43.6453 82.2268 45.0345 84.1775 45.0345C85.5519 45.0345 86.6603 44.6059 87.2218 43.734H90.7686C89.8524 46.1872 87.2218 47.8424 84.1775 47.8424C80.2612 47.8424 77.2465 44.7685 77.2465 40.9409C77.2465 37.1133 80.2612 34.0247 84.1036 34.0247C87.946 34.0247 90.9608 37.0986 90.9608 40.9409C90.9608 41.2956 90.9312 41.6503 90.8869 41.9606H80.3943L80.3647 41.9458ZM80.4977 39.3005H87.68C87.2514 37.8966 85.7883 36.7586 84.0888 36.7586C82.3893 36.7586 80.9263 37.8966 80.4977 39.3005Z" fill="black"/>
<path d="M102.96 47.665V46.2611C102.103 47.1034 100.773 47.8276 98.9849 47.8276C94.9652 47.8276 92.2903 45.1232 92.2903 40.9261C92.2903 36.7291 94.9652 34.0099 98.9849 34.0099C100.655 34.0099 102.118 34.6601 102.96 35.5764V28.7783L105.916 28.4532V47.6798H102.96V47.665ZM99.1327 36.8768C96.783 36.8768 95.2165 38.5911 95.2165 40.9261C95.2165 43.2611 96.783 44.9754 99.1327 44.9754C101.482 44.9754 103.019 43.2463 103.019 40.9261C103.019 38.6059 101.482 36.8768 99.1327 36.8768Z" fill="black"/>
<path d="M110.778 41.9459C111.103 43.6454 112.64 45.0346 114.591 45.0346C115.965 45.0346 117.074 44.606 117.635 43.7341H121.167C120.251 46.1873 117.635 47.8425 114.591 47.8425C110.675 47.8425 107.66 44.7686 107.66 40.941C107.66 37.1134 110.675 34.0247 114.517 34.0247C118.359 34.0247 121.374 37.0986 121.374 40.941C121.374 41.2957 121.344 41.6503 121.3 41.9607H110.793L110.778 41.9459ZM110.911 39.3006H118.093C117.665 37.8966 116.202 36.7587 114.502 36.7587C112.803 36.7587 111.34 37.8966 110.911 39.3006Z" fill="black"/>
<path d="M123.354 34.1724H126.324V35.5764C126.974 34.7192 127.92 34.0099 129.797 34.0099V36.8769H129.531C127.654 36.8769 126.324 38.2365 126.324 40.2168V47.665H123.354V34.1724Z" fill="black"/>
<path d="M131.794 28.7784L134.765 28.4533V47.6799H131.794V28.7932V28.7784Z" fill="black"/>
<path d="M150.058 34.1724V47.665H147.043V46.2611C146.481 46.9852 144.989 47.8276 143.186 47.8276C139.314 47.8276 136.403 44.9754 136.403 40.9261C136.403 36.8769 139.314 34.0099 143.186 34.0099C144.959 34.0099 146.481 34.8375 147.043 35.5764V34.1724H150.058ZM143.289 36.8769C141.043 36.8769 139.314 38.7094 139.314 40.9261C139.314 43.1429 141.043 44.9754 143.289 44.9754C145.536 44.9754 147.147 43.1281 147.147 40.9261C147.147 38.7242 145.462 36.8769 143.289 36.8769Z" fill="black"/>
<path d="M152.674 34.1724H155.644V35.7094C156.265 34.8966 157.477 34.0099 159.339 34.0099C162.693 34.0099 164.526 35.9754 164.526 39.5813V47.6798H161.555V40.2315C161.555 37.8522 160.565 36.8325 158.615 36.8325C156.664 36.8325 155.644 38.2512 155.644 40.2315V47.6798H152.674V34.1872V34.1724Z" fill="black"/>
<path d="M176.999 47.6651V46.2611C176.127 47.1035 174.812 47.8276 173.039 47.8276C169.004 47.8276 166.344 45.1232 166.344 40.9262C166.344 36.7291 169.019 34.0099 173.039 34.0099C174.709 34.0099 176.172 34.6602 176.999 35.5764V28.7784L179.955 28.4533V47.6799H176.999V47.6651ZM173.157 36.8769C170.807 36.8769 169.241 38.5912 169.241 40.9262C169.241 43.2611 170.807 44.9754 173.157 44.9754C175.507 44.9754 177.044 43.2464 177.044 40.9262C177.044 38.606 175.507 36.8769 173.157 36.8769Z" fill="black"/>
<path d="M39.3992 1.00984V6.21181C37.3007 3.50738 31.6997 0.403931 25.0938 0.403931C10.8031 0.403931 0.000167847 11 0.000167847 26C0.000167847 41 10.8031 51.596 25.0938 51.596C31.7883 51.596 37.2859 48.4926 39.3992 45.7882V50.9901H49.2859V1.00984H39.3992ZM24.6356 44.0739C15.0741 44.0739 7.33022 35.9754 7.33022 25.9852C7.33022 15.9951 15.0741 7.89654 24.6356 7.89654C34.1972 7.89654 41.9411 15.9951 41.9411 25.9852C41.9411 35.9754 34.1972 44.0739 24.6356 44.0739Z" fill="black"/>
</svg>
