<?xml version="1.0" encoding="UTF-8"?> <svg xmlns="http://www.w3.org/2000/svg" width="114.911" height="103.813" viewBox="0 0 114.911 103.813"><g id="Group_13" data-name="Group 13" transform="translate(-66.842 -41.006)"><g id="Group_1" data-name="Group 1" transform="translate(66.842 41.006)"><path id="Path_5" data-name="Path 5" d="M113.326,149.513a46.484,46.484,0,1,0-46.484-46.485,46.485,46.485,0,0,0,46.484,46.485" transform="translate(-66.842 -49.693)" fill="#fff"></path><path id="Path_6" data-name="Path 6" d="M134,158.567a46.484,46.484,0,1,0-46.484-46.485A46.484,46.484,0,0,0,134,158.567" transform="translate(-78.397 -54.755)" fill="#fff"></path><path id="Path_7" data-name="Path 7" d="M163.09,133.975A46.484,46.484,0,1,0,116.606,87.49a46.484,46.484,0,0,0,46.484,46.485" transform="translate(-94.663 -41.006)" fill="#fff"></path><path id="Path_8" data-name="Path 8" d="M113.326,149.513a46.484,46.484,0,1,0-46.484-46.485,46.485,46.485,0,0,0,46.484,46.485" transform="translate(-66.842 -49.693)" fill="#91c492"></path><path id="Path_9" data-name="Path 9" d="M199.58,237.947a46.218,46.218,0,0,1-20.624,6.066,46.6,46.6,0,0,1-38.379,4.779,46.506,46.506,0,0,0,59-10.845" transform="translate(-108.065 -151.108)" fill="#7fcceb"></path><path id="Path_10" data-name="Path 10" d="M110.907,79.5a46.5,46.5,0,0,0,0,80.71,46.6,46.6,0,0,0,38.379-4.779c-.817.043-1.637.064-2.465.064A46.486,46.486,0,0,1,110.907,79.5" transform="translate(-78.398 -62.528)" fill="#3ca78a"></path><path id="Path_11" data-name="Path 11" d="M191.081,41.007a46.272,46.272,0,0,0-24.408,6.915q1.226-.063,2.465-.064a46.271,46.271,0,0,1,23.085,6.129,46.5,46.5,0,0,1,21.946,73.858,46.49,46.49,0,0,0-23.088-86.838" transform="translate(-122.654 -41.007)" fill="#7fcceb"></path><path id="Path_12" data-name="Path 12" d="M154.545,56.545q-1.241,0-2.464.064a46.7,46.7,0,0,0-11.51,10.058,46.621,46.621,0,0,1,37.06-3.994,46.273,46.273,0,0,0-23.086-6.129" transform="translate(-108.061 -49.693)" fill="#3ca78a"></path><path id="Path_13" data-name="Path 13" d="M224.618,70.444a46.5,46.5,0,0,1,1.322,79.925,46.223,46.223,0,0,0,20.624-6.066,46.5,46.5,0,0,0-21.946-73.858" transform="translate(-155.049 -57.464)" fill="#00aed8"></path><path id="Path_14" data-name="Path 14" d="M150.261,65.6a46.268,46.268,0,0,0-23.088,6.13,46.486,46.486,0,0,0,35.917,75.995q1.241,0,2.464-.064a46.5,46.5,0,0,0-1.321-79.925A46.464,46.464,0,0,0,150.261,65.6" transform="translate(-94.663 -54.755)" fill="#009882"></path><path id="Path_15" data-name="Path 15" d="M211,182.2c-1.4,0-2.427-1.094-2.427-3.072s1.1-3.039,2.416-3.039a2.209,2.209,0,0,1,1.443.426l-.35.941a1.057,1.057,0,0,0-.7-.23c-.743,0-1.094.678-1.094,1.881s.4,1.88,1.083,1.88a1.01,1.01,0,0,0,.71-.241l.361,1.028A2.03,2.03,0,0,1,211,182.2" transform="translate(-146.079 -116.528)" fill="#fff"></path><path id="Path_16" data-name="Path 16" d="M223.052,177.153c-.754,0-.908.918-.908,1.968s.164,1.924.908,1.924.907-.864.907-1.924-.153-1.968-.907-1.968m0,5.05c-1.706,0-2.6-1.3-2.6-3.061s.9-3.05,2.591-3.05c1.716,0,2.613,1.29,2.613,3.05s-.9,3.061-2.6,3.061" transform="translate(-152.719 -116.528)" fill="#fff"></path></g><rect id="Rectangle_14" data-name="Rectangle 14" width="1.706" height="8.582" transform="translate(141.537 97.991)" fill="#fff"></rect><rect id="Rectangle_15" data-name="Rectangle 15" width="1.706" height="8.582" transform="translate(145.287 97.991)" fill="#fff"></rect><g id="Group_2" data-name="Group 2" transform="translate(84.035 79.129)"><path id="Path_17" data-name="Path 17" d="M255.2,177.1c-.7,0-1.137.6-1.082,1.815l2.055-.306c0-1.049-.35-1.508-.973-1.508m-.973,2.646a1.291,1.291,0,0,0,1.421,1.29,3.4,3.4,0,0,0,1.531-.317l.383,1.061a4.6,4.6,0,0,1-2.11.426c-1.8,0-2.843-1.191-2.843-3.072,0-1.848.962-3.039,2.657-3.039s2.569,1.159,2.492,3.149Z" transform="translate(-187.889 -154.651)" fill="#fff"></path><path id="Path_18" data-name="Path 18" d="M270.713,177.176a1.2,1.2,0,0,0-.536-.1c-.875,0-1.236.711-1.236,2.121,0,1.333.35,1.967,1.2,1.967a1.1,1.1,0,0,0,.569-.142Zm-.918,7.4a4.876,4.876,0,0,1-2.2-.437l.437-1.1a3.164,3.164,0,0,0,1.454.35c.9,0,1.225-.426,1.225-1.1v-.328a2.217,2.217,0,0,1-1.028.186c-1.41,0-2.427-1.082-2.427-2.842,0-1.968,1.006-3.2,3.029-3.2a4.342,4.342,0,0,1,2.088.437v5.609a2.287,2.287,0,0,1-2.58,2.437" transform="translate(-196.081 -154.651)" fill="#fff"></path><path id="Path_19" data-name="Path 19" d="M284.9,177.1c-.7,0-1.137.6-1.082,1.815l2.055-.306c0-1.049-.349-1.508-.973-1.508m-.973,2.646a1.291,1.291,0,0,0,1.421,1.29,3.4,3.4,0,0,0,1.53-.317l.383,1.061a4.6,4.6,0,0,1-2.11.426c-1.8,0-2.842-1.191-2.842-3.072,0-1.848.962-3.039,2.656-3.039s2.569,1.159,2.493,3.149Z" transform="translate(-204.495 -154.651)" fill="#fff"></path><path id="Path_20" data-name="Path 20" d="M116.29,144.224V127.465h-3.441v5.527a7.327,7.327,0,0,0-1.754-.2c-3.085,0-5.26,2.354-5.26,6.194,0,4,2.264,6.126,5.882,6.126a9.568,9.568,0,0,0,4.573-.888m-3.441-1.487a2.308,2.308,0,0,1-1.065.177c-1.754,0-2.531-1.487-2.531-4.084,0-2.464.733-4.107,2.642-4.107a3.22,3.22,0,0,1,.954.133Zm14.983,1.487v-7.148c0-3.241-2-4.373-4.706-4.373a11.456,11.456,0,0,0-4.506.91l.754,1.975a7.918,7.918,0,0,1,3.108-.733c1.266,0,2.109.355,2.109,1.6v.555c-3.6.333-6.682,1.243-6.682,4.329,0,2.486,1.776,3.774,5.239,3.774a10.406,10.406,0,0,0,4.684-.888m-3.24-1.266a2.908,2.908,0,0,1-1.265.244c-1.377,0-2.176-.6-2.176-2,0-1.909,1.354-2.4,3.441-2.6Zm19.888-14.944h-3.463l-2.2,10.482c-.2.821-.355,1.865-.355,1.865h-.022s-.155-1.044-.355-1.865l-2.131-10.482h-3.818l4.617,16.876h3.13Zm4.493,1.47a1.857,1.857,0,1,0-1.842,1.62,1.745,1.745,0,0,0,1.842-1.62m-.111,3.441H145.4v11.965h3.464Zm12.408,11.964V136.5c0-2.176-1.354-3.8-5.15-3.8a12.543,12.543,0,0,0-5.017.888v11.3h3.463V135.1a4.074,4.074,0,0,1,1.465-.244c1.4,0,1.776.822,1.776,1.665v8.369Zm9.168-.644-.732-2.087a2.057,2.057,0,0,1-1.443.489c-1.377,0-2.2-1.4-2.2-3.818,0-2.442.711-3.818,2.22-3.818a2.162,2.162,0,0,1,1.421.466l.71-1.908a4.487,4.487,0,0,0-2.93-.866c-2.663,0-4.905,2.131-4.905,6.171,0,4.018,2.087,6.238,4.928,6.238a4.124,4.124,0,0,0,2.93-.866m4.639-14.761a1.857,1.857,0,1,0-1.842,1.62,1.745,1.745,0,0,0,1.842-1.62m-.111,3.441H171.5v11.965h3.463Z" transform="translate(-105.835 -127.465)" fill="#fff"></path></g></g></svg> 