<svg xmlns="http://www.w3.org/2000/svg" width="3495" height="1186" viewBox="0 0 3495 1186"><g fill="none" fill-rule="evenodd"><polygon fill="#CFD600" fill-rule="nonzero" points="395 0 395 1054 790 774.557 790 0"/><path fill="#454C9B" fill-rule="nonzero" d="M395.12736,1186 L0,906.618824 L0,1 L395.12736,1 L395.12736,1186 Z M1701.87264,775.014118 L1768.22281,775.014118 L1768.22281,424.997647 L1701.87264,471.84 L1701.87264,774.828235 L1701.87264,775.014118 Z M1669.90561,351.202353 L1669.90561,334.472941 C1657.82505,346.927059 1636.82345,356.592941 1613.21989,356.592941 C1566.19862,356.592941 1519.17735,327.781176 1519.17735,266.811765 C1519.17735,211.047059 1564.34007,183.350588 1621.3975,183.350588 C1644.4435,183.350588 1659.31189,188.183529 1669.90561,193.388235 L1669.90561,180.934118 C1669.90561,163.089412 1657.82505,148.776471 1633.84977,148.776471 C1603.55544,148.776471 1587.75778,153.051765 1564.71178,165.505882 L1539.24967,119.407059 C1568.61473,102.677647 1592.96171,93.9411765 1633.84977,93.9411765 C1694.81016,93.9411765 1736.06993,125.541176 1736.06993,182.235294 L1736.06993,351.202353 L1669.90561,351.202353 Z M1669.90561,277.221176 L1669.90561,245.621176 C1658.38261,238.371765 1647.41718,235.025882 1623.81361,235.025882 C1598.90907,235.025882 1585.34166,246.550588 1585.34166,266.625882 C1585.34166,284.470588 1595.37783,300.270588 1623.81361,300.270588 C1645.37277,300.270588 1662.65727,289.303529 1669.90561,277.221176 L1669.90561,277.221176 Z M1137.05982,500.28 C1167.35416,500.28 1186.49721,513.663529 1198.57777,536.712941 L1261.02499,507.901176 C1239.83754,464.218824 1201.55145,433.548235 1138.17495,433.548235 C1050.26562,433.548235 988.933528,504.555294 988.933528,606.976471 C988.933528,709.397647 1048.03536,780.404706 1135.75884,780.404706 C1196.71922,780.404706 1237.04972,752.150588 1260.09572,704.564706 L1203.41,670.92 C1185.56793,700.661176 1167.91173,713.672941 1137.61739,713.672941 C1087.25073,713.672941 1057.88567,667.574118 1057.88567,607.162353 C1057.88567,546.750588 1086.69317,500.651765 1137.05982,500.651765 L1137.05982,500.28 Z M1396.88487,214.764706 C1396.88487,171.082353 1413.61181,160.115294 1439.63148,160.115294 C1454.49987,160.115294 1467.5097,166.807059 1478.10343,176.472941 L1495.38793,111.6 C1486.65275,102.491765 1470.48338,93.7552941 1448.73837,93.7552941 C1425.1348,93.7552941 1408.40787,103.792941 1396.88487,115.875294 L1396.88487,99.1458824 L1330.72055,99.1458824 L1330.72055,351.202353 L1396.88487,351.202353 L1396.88487,214.764706 L1396.88487,214.764706 Z M1149.14039,239.672941 L1202.48072,239.672941 C1198.57777,269.042353 1182.78011,290.604706 1136.68811,290.604706 C1086.32146,290.604706 1056.95639,245.063529 1056.95639,182.978824 C1056.95639,120.894118 1085.76389,76.4682353 1136.13055,76.4682353 C1172.5581,76.4682353 1187.98405,95.2423529 1200.43632,120.150588 L1264.37038,93.7552941 C1242.25366,41.8941176 1205.82611,9.73647059 1137.05982,9.73647059 C1049.15049,9.73647059 987.818399,80.7435294 987.818399,183.164706 C987.818399,285.585882 1046.92023,356.592941 1134.64371,356.592941 C1212.33103,356.592941 1269.57432,307.705882 1269.57432,221.270588 L1269.57432,177.030588 L1149.14039,177.030588 L1149.14039,239.858824 L1149.14039,239.672941 Z M1518.61978,649.171765 C1518.61978,726.498824 1470.11167,780.218824 1404.31906,780.218824 C1338.52646,780.218824 1290.57591,726.498824 1290.57591,649.171765 C1290.57591,571.844706 1338.52646,517.567059 1404.31906,517.567059 C1470.11167,517.567059 1518.61978,571.844706 1518.61978,649.171765 Z M1451.52619,649.171765 C1451.52619,610.694118 1436.10024,581.510588 1404.50492,581.510588 C1372.9096,581.510588 1357.85536,610.322353 1357.85536,649.171765 C1357.85536,688.021176 1372.72374,716.461176 1404.50492,716.461176 C1436.28609,716.461176 1451.52619,684.303529 1451.52619,649.171765 Z M1568.80058,775.014118 L1635.15076,775.014118 L1635.15076,425.183529 L1568.80058,472.025882 L1568.80058,775.014118 Z M3217.33289,182.235294 L3217.33289,351.202353 L3151.16857,351.202353 L3151.16857,334.472941 C3139.08801,346.927059 3118.08641,356.592941 3094.48285,356.592941 C3047.46158,356.592941 3000.44031,327.781176 3000.44031,266.811765 C3000.44031,211.047059 3045.60303,183.350588 3102.66046,183.350588 C3125.70646,183.350588 3140.57485,188.183529 3151.16857,193.388235 L3151.16857,180.934118 C3151.16857,163.089412 3139.08801,148.776471 3115.11274,148.776471 C3084.8184,148.776471 3069.02074,153.051765 3045.97474,165.505882 L3020.51263,119.407059 C3049.87769,102.677647 3074.22467,93.9411765 3115.11274,93.9411765 C3176.07312,93.9411765 3217.33289,125.541176 3217.33289,182.235294 Z M3151.16857,245.435294 C3139.64557,238.185882 3128.68014,234.84 3105.07658,234.84 C3080.17203,234.84 3066.60463,246.364706 3066.60463,266.44 C3066.60463,284.284706 3076.64079,300.084706 3105.07658,300.084706 C3126.63574,300.084706 3143.92023,289.117647 3151.16857,277.035294 L3151.16857,245.435294 Z M2591.00213,292.649412 C2559.40681,292.649412 2538.59107,265.696471 2538.59107,225.36 C2538.59107,185.023529 2559.22095,157.698824 2591.00213,157.698824 C2617.95108,157.698824 2633.74874,172.569412 2648.61712,193.76 L2692.29301,149.52 C2671.10556,117.362353 2640.43951,93.7552941 2592.48897,93.7552941 C2522.4217,93.7552941 2471.49747,148.032941 2471.49747,225.36 C2471.49747,302.687059 2523.90853,356.407059 2589.51529,356.407059 C2639.51024,356.407059 2668.31773,332.8 2692.66472,300.270588 L2650.47567,260.491765 C2633.19117,281.124706 2616.83595,292.649412 2591.00213,292.649412 L2591.00213,292.649412 Z M2863.09359,93.7552941 C2836.70221,93.7552941 2815.51476,103.792941 2803.99176,115.875294 L2803.99176,1 L2737.82744,47.8423529 L2737.82744,351.016471 L2803.99176,351.016471 L2803.99176,213.277647 C2803.99176,169.595294 2819.78942,156.211765 2847.29593,156.211765 C2874.80245,156.211765 2890.04254,169.595294 2890.04254,214.764706 L2890.04254,351.202353 L2956.20686,351.202353 L2956.20686,209.002353 C2956.20686,137.995294 2927.39936,93.7552941 2863.09359,93.7552941 L2863.09359,93.7552941 Z M2562.19463,649.171765 C2562.19463,658.837647 2561.63706,665.529412 2561.26535,670.362353 L2410.53709,670.362353 C2412.9532,704.936471 2438.41532,717.948235 2462.39059,717.948235 C2480.60436,717.948235 2496.03031,711.256471 2505.50891,700.289412 L2541.56474,751.221176 C2520.56315,769.995294 2490.64052,780.590588 2462.39059,780.590588 C2389.90721,780.590588 2343.81521,729.287059 2343.81521,649.543529 C2343.81521,569.8 2392.32332,517.938824 2456.07152,517.938824 C2523.35097,517.938824 2562.19463,577.421176 2562.19463,649.543529 L2562.19463,649.171765 Z M2497.88886,620.36 C2496.03031,597.868235 2482.46291,575.190588 2452.72614,575.190588 C2428.75086,575.190588 2413.88248,594.894118 2411.46637,620.36 L2497.88886,620.36 Z M3495,228.148235 C3495,303.616471 3459.50173,356.407059 3397.05451,356.407059 C3374.93778,356.407059 3355.79474,347.856471 3343.71417,336.703529 L3343.71417,415.331765 L3277.54985,462.174118 L3277.54985,99.1458824 L3343.71417,99.1458824 L3343.71417,114.945882 C3356.16645,103.978824 3373.07923,93.7552941 3397.05451,93.7552941 C3450.76655,93.7552941 3495,134.091765 3495,228.148235 Z M3427.72055,229.635294 C3427.72055,177.774118 3410.43605,156.211765 3384.60223,156.211765 C3363.97235,156.211765 3353.37862,164.762353 3343.71417,177.402353 L3343.71417,272.388235 C3353.75033,286.329412 3369.17628,293.950588 3388.31933,293.950588 C3413.78144,293.950588 3427.72055,271.830588 3427.72055,229.635294 Z M2144.20713,351.202353 L2144.20713,161.602353 L2186.95374,161.602353 L2186.95374,99.1458824 L2144.20713,99.1458824 L2144.20713,77.9552941 C2144.20713,64.0141176 2149.03935,57.88 2168.73996,57.88 C2178.40441,57.88 2185.09519,59.7388235 2191.78596,63.0847059 L2191.78596,9.73647059 C2180.26296,4.90352941 2166.32385,2.48705882 2149.96863,2.48705882 C2103.87663,2.48705882 2078.04281,21.6329412 2078.04281,68.6611765 L2078.04281,98.96 L2047.74847,98.96 L2047.74847,161.416471 L2078.04281,161.416471 L2078.04281,351.016471 L2144.20713,351.016471 L2144.20713,351.202353 Z M2036.96889,649.171765 C2036.96889,658.837647 2036.41133,665.529412 2036.03962,670.362353 L1885.31135,670.362353 C1887.72747,704.936471 1913.18958,717.948235 1937.16485,717.948235 C1955.37862,717.948235 1970.80457,711.256471 1980.28317,700.289412 L2016.33901,751.221176 C1995.33741,769.995294 1965.41478,780.590588 1937.16485,780.590588 C1864.68147,780.590588 1818.58947,729.287059 1818.58947,649.543529 C1818.58947,569.8 1867.09758,517.938824 1930.84579,517.938824 C1998.12523,517.938824 2036.96889,577.421176 2036.96889,649.543529 L2036.96889,649.171765 Z M1972.66312,620.36 C1970.80457,597.868235 1957.23717,575.190588 1927.5004,575.190588 C1903.52513,575.190588 1888.65674,594.894118 1886.24063,620.36 L1972.66312,620.36 Z M1878.62058,356.407059 C1831.59931,356.407059 1784.57804,327.595294 1784.57804,266.625882 C1784.57804,210.861176 1829.74076,183.164706 1886.79819,183.164706 C1909.84419,183.164706 1924.71258,187.997647 1935.3063,193.202353 L1935.3063,180.748235 C1935.3063,162.903529 1923.22574,148.590588 1899.25047,148.590588 C1868.95613,148.590588 1853.15847,152.865882 1830.11247,165.32 L1804.65036,119.221176 C1834.01542,102.491765 1858.3624,93.7552941 1899.25047,93.7552941 C1960.21085,93.7552941 2001.47062,125.355294 2001.47062,182.049412 L2001.47062,351.016471 L1935.3063,351.016471 L1935.3063,334.287059 C1923.22574,346.741176 1902.22414,356.407059 1878.62058,356.407059 Z M1889.2143,300.270588 C1910.77346,300.270588 1928.05796,289.303529 1935.3063,277.221176 L1935.3063,245.621176 C1923.7833,238.371765 1912.81787,235.025882 1889.2143,235.025882 C1864.30976,235.025882 1850.74236,246.550588 1850.74236,266.625882 C1850.74236,284.470588 1860.77852,300.270588 1889.2143,300.270588 Z M2433.21138,277.778824 C2433.21138,227.404706 2394.36772,211.047059 2349.205,196.176471 C2304.59984,181.863529 2296.79394,177.402353 2296.79394,166.807059 C2296.79394,156.211765 2304.04228,150.449412 2330.80537,150.449412 C2351.99282,150.449412 2379.31348,157.141176 2404.21803,170.524706 L2425.40548,118.105882 C2398.45653,103.235294 2363.88753,93.5694118 2332.29221,93.5694118 C2273.19037,93.5694118 2231.55889,116.061176 2231.55889,168.48 C2231.55889,220.898824 2270.40255,236.698824 2330.99123,254.915294 C2358.86945,263.094118 2367.97634,268.856471 2367.97634,280.381176 C2367.97634,293.392941 2360.35629,299.527059 2334.33661,299.527059 C2302.18373,299.527059 2273.74794,291.348235 2246.98484,276.477647 L2224.86812,326.851765 C2251.81707,344.696471 2290.66073,356.221176 2330.43366,356.221176 C2387.11938,356.221176 2433.21138,335.588235 2433.21138,277.407059 L2433.21138,277.778824 Z M2230.07206,522.957647 L2296.42223,522.957647 L2296.42223,761.630588 C2296.42223,815.350588 2292.89099,859.404706 2237.32039,883.197647 C2192.15767,902.529412 2149.03935,884.498824 2149.03935,884.498824 L2149.03935,829.663529 C2149.03935,829.663529 2159.44722,835.054118 2180.63467,835.797647 C2219.47833,836.912941 2230.44376,808.287059 2230.44376,780.032941 L2230.44376,759.214118 C2217.80564,770.181176 2201.0787,780.404706 2177.10343,780.404706 C2123.39139,780.404706 2079.15794,740.068235 2079.15794,646.011765 C2079.15794,570.543529 2114.65621,517.752941 2177.10343,517.752941 C2199.22015,517.752941 2218.3632,526.303529 2230.44376,537.456471 L2230.44376,523.143529 L2230.07206,522.957647 Z M2230.07206,601.585882 C2220.03589,587.644706 2204.60994,580.023529 2185.4669,580.023529 C2160.00479,580.023529 2146.06567,602.143529 2146.06567,644.338824 C2146.06567,696.2 2163.35017,717.762353 2189.36985,717.762353 C2209.99973,717.762353 2220.59346,709.025882 2230.25791,696.571765 L2230.25791,601.585882 L2230.07206,601.585882 Z"/><path fill="#FFF" fill-rule="nonzero" d="M337.500202,298.842506 L626,298.842506 L626,277.638442 C626,197.100198 560.710877,132 480.355034,132 L311.644966,132 C231.103114,132 166,197.286198 166,277.638442 L166,645.361558 C166,725.899802 231.289123,791 311.644966,791 L480.355034,791 C560.896886,791 626,725.713802 626,645.361558 L626,427.182896 L395.720987,427.182896 L395.720987,560.3593 L461.568136,560.3593 L461.568136,626.2035 L337.500202,626.2035 C333.221998,626.2035 329.873837,622.669489 329.873837,618.577477 L329.873837,306.468529 C329.873837,302.190517 333.408006,298.842506 337.500202,298.842506 L337.500202,298.842506 Z"/></g></svg>