<svg width="242" height="54" viewBox="0 0 242 54" fill="none" xmlns="http://www.w3.org/2000/svg">
<path fill-rule="evenodd" clip-rule="evenodd" d="M50.5999 16.1051C50.5961 17.7166 50.5923 19.3286 50.5923 20.9406L50.5808 20.9525C50.5841 22.2118 50.5999 23.472 50.6156 24.7324C50.6543 27.8354 50.6931 30.9393 50.5465 34.0311C50.2602 39.9586 54.9319 44.2587 58.8364 45.1496C63.2103 46.1475 67.4126 45.8861 71.0193 42.7264C73.4811 40.5644 74.8093 37.8442 74.7864 34.4112C74.7407 25.1271 74.7635 15.8549 74.7864 6.57077L74.7864 6.55536C74.7979 2.74226 77.2826 0.283351 80.8665 0.449654C82.5268 0.520927 83.7748 1.31681 84.3817 2.93233C85.0114 4.58348 84.9084 6.27027 83.7061 7.57694C83.0535 8.27779 82.8703 8.93113 82.8703 9.82204C82.878 12.5385 82.8608 15.2562 82.8435 17.974C82.8098 23.2665 82.7762 28.559 82.9275 33.841C83.2825 46.0168 72.8972 53.94 63.7142 53.9993C56.3632 54.0469 50.4091 51.5167 45.9206 45.4822C43.5848 42.3344 42.4741 38.747 42.4741 34.7676V34.766C42.4856 26.4276 42.497 18.0892 42.4398 9.75077C42.4398 9.04992 42.0619 8.26591 41.6497 7.68385C40.5734 6.17524 40.333 4.5716 40.9971 2.87293C41.6268 1.26929 42.8863 0.497171 44.5466 0.437777C48.0618 0.30711 50.5579 2.75414 50.5923 6.44845C50.6152 9.66321 50.6076 12.8833 50.5999 16.1051ZM28.2874 50.7089C24.4974 53.049 20.3295 53.9281 16.1044 53.9281C10.9977 53.8568 6.33744 52.8352 2.37569 49.4973C1.08182 48.4044 0.314661 47.074 0.497864 45.3159C0.784118 42.56 3.18865 41.1108 5.75348 42.1324C6.20922 42.3143 6.63141 42.5796 7.05087 42.8433C7.17943 42.9241 7.30773 43.0047 7.43666 43.0827C11.8908 45.8148 16.6082 46.4563 21.5432 44.8408C23.9592 44.0568 26.2836 42.8689 26.5813 39.8754C26.879 36.8345 24.8752 35.0289 22.528 33.8885C20.9082 33.1025 19.2288 32.4479 17.5472 31.7925C16.2807 31.2988 15.013 30.8047 13.7686 30.2536C13.6136 30.1851 13.4585 30.1167 13.3034 30.0482C10.9018 28.9884 8.48224 27.9205 6.23439 26.5593C-1.56317 21.8196 -2.66238 8.85985 6.47484 3.28869C13.5281 -1.01144 20.799 -0.952046 28.1042 2.63536C29.169 3.14615 30.1309 3.94203 31.0011 4.76167C32.7987 6.43658 33.0048 8.70543 31.6423 10.4635C30.1881 12.3522 28.024 12.6017 25.9172 11.0693C22.0241 8.23028 17.7532 7.69573 13.2533 9.0024C12.0969 9.33501 10.9519 9.97646 9.99004 10.7367C7.55116 12.673 7.23055 15.7496 9.36028 18.0422C10.5396 19.3013 12.0282 20.3823 13.5625 21.1307C15.025 21.8477 16.5441 22.4405 18.0642 23.0337C19.3645 23.5412 20.6656 24.0489 21.9326 24.6349C22.2148 24.7651 22.4983 24.8946 22.7823 25.0244C25.0907 26.0795 27.434 27.1506 29.4324 28.6737C37.0009 34.4231 36.3483 45.7198 28.2874 50.7089ZM102.811 23.0135C102.756 23.0313 102.702 23.0491 102.645 23.0669V24.7537C102.645 26.2147 102.645 27.6753 102.646 29.1355C102.647 34.9765 102.649 40.8114 102.622 46.6464C102.61 47.8105 102.519 49.034 102.175 50.1387C101.316 52.8946 98.4081 54.4745 95.6944 53.8212C92.7746 53.1203 91.538 48.8083 93.6563 46.4682C94.3319 45.7317 94.538 45.0308 94.538 44.0805C94.5288 39.5102 94.527 34.9418 94.5251 30.3745C94.5224 23.522 94.5196 16.672 94.4922 9.82204C94.4922 9.15682 94.2059 8.33719 93.7823 7.85015C92.3395 6.21088 91.9731 4.28651 92.9578 2.52845C93.9082 0.841655 95.8662 0.0695309 97.8471 0.592199C99.8394 1.12675 101.145 2.50469 102.198 4.25088C107.706 13.4213 113.236 22.568 118.766 31.7147C118.966 32.0341 119.166 32.3471 119.414 32.736C119.507 32.8823 119.607 33.0393 119.717 33.2114C120.033 32.6835 120.345 32.1622 120.656 31.6436C121.673 29.9452 122.672 28.2773 123.724 26.5118C124.117 27.1422 124.506 27.7637 124.891 28.3791C126.168 30.419 127.403 32.3916 128.591 34.3993C128.774 34.7081 128.648 35.3971 128.43 35.7654C126.85 38.4856 125.259 41.1821 123.598 43.8548C121.629 47.0027 118.045 47.0146 116.076 43.8786C112.897 38.8031 109.726 33.7131 106.556 28.6256C105.661 27.1881 104.765 25.7509 103.87 24.3142C103.679 24.0054 103.478 23.7071 103.277 23.4088C103.176 23.2597 103.076 23.1105 102.977 22.96C102.919 22.9778 102.865 22.9956 102.811 23.0135ZM158.022 29.0568C158.536 28.2289 159.062 27.3828 159.609 26.5118L159.598 26.5355C160.338 27.7673 161.043 28.9448 161.746 30.1206C162.359 31.1445 162.971 32.1672 163.605 33.2233C163.658 33.1409 163.709 33.061 163.758 32.9833C164.066 32.5006 164.321 32.1002 164.567 31.6909C166.678 28.1942 168.79 24.6974 170.902 21.1999C174.337 15.5133 177.773 9.82499 181.204 4.13209C182.487 2.00578 184.147 0.509051 186.7 0.461536C188.475 0.425899 189.975 1.4356 190.593 3.06299C191.246 4.77354 190.811 6.25839 189.735 7.68385C189.277 8.28967 188.841 9.12119 188.841 9.85768C188.796 21.3207 188.796 32.7719 188.841 44.235C188.841 44.9477 189.196 45.7673 189.631 46.3375C190.857 47.9293 190.96 49.6279 190.307 51.4098C189.689 53.0966 188.257 53.9399 186.391 53.9162C183.082 53.8687 180.781 51.481 180.758 47.9174C180.723 42.0552 180.728 36.1997 180.732 30.3408C180.733 28.3879 180.735 26.4346 180.735 24.4805C180.735 23.9697 180.735 23.4589 180.471 22.8175C180.371 22.9663 180.268 23.1135 180.165 23.2609C179.996 23.5016 179.826 23.743 179.67 23.9935C175.606 30.5018 171.542 37.022 167.478 43.5423L167.475 43.546C165.208 47.169 161.716 47.1453 159.506 43.4866C158.999 42.6432 158.496 41.7959 157.993 40.9485C156.988 39.2538 155.983 37.5591 154.938 35.896C154.457 35.1358 154.502 34.6131 154.972 33.8885C155.997 32.3169 156.987 30.724 158.022 29.0568ZM137.903 20.6308C137.89 20.48 137.873 20.296 137.854 20.0616L137.865 20.0378C135.644 23.7321 133.64 27.0701 131.545 30.5624C131.279 30.1259 131.016 29.6939 130.755 29.2654C129.361 26.977 128.03 24.7911 126.747 22.5799C126.564 22.2829 126.61 21.6652 126.793 21.3445C127.336 20.4237 127.879 19.5026 128.422 18.5816C131.471 13.4071 134.52 8.23312 137.659 3.11051C139.892 -0.524406 143.453 -0.512529 145.686 3.14615C148.825 8.25952 151.872 13.4336 154.921 18.609C155.441 19.4932 155.962 20.3774 156.483 21.2613C156.678 21.5939 156.781 22.2235 156.609 22.5205C155.457 24.5122 154.267 26.4776 153.048 28.4903C152.632 29.1784 152.212 29.8721 151.789 30.5743C150.827 28.9784 149.882 27.4052 148.945 25.8455C147.852 24.027 146.771 22.2267 145.686 20.4298C145.583 20.4655 145.491 20.5011 145.4 20.5367C145.394 20.6496 145.387 20.7626 145.381 20.8755C145.362 21.2139 145.342 21.5524 145.342 21.8909C145.331 29.2201 145.319 36.5612 145.365 43.9024C145.365 44.6982 145.629 45.5654 145.995 46.2662C147.174 48.4876 146.819 51.1009 144.987 52.7164C143.132 54.3438 140.121 54.332 138.289 52.6808C136.48 51.0534 136.125 48.4401 137.362 46.2306C137.636 45.7317 137.923 45.1259 137.923 44.5676C137.95 38.3524 137.948 32.1448 137.946 25.9327C137.946 24.3799 137.945 22.8268 137.945 21.2732C137.945 21.0993 137.93 20.9307 137.903 20.6308Z" fill="white"/>
<path d="M50.592 20.9405C50.592 25.3001 50.7638 29.6715 50.5577 34.0191C50.2714 39.9466 54.9431 44.2468 58.8476 45.1377C63.2215 46.1355 67.4238 45.8742 71.0305 42.7144C73.4923 40.5524 74.8091 37.8322 74.7977 34.3992C74.7518 25.11 74.7633 15.8326 74.7977 6.54341C74.7977 2.74219 77.2938 0.271395 80.8777 0.437698C82.5379 0.508971 83.786 1.30485 84.3929 2.92037C85.0226 4.57153 84.9196 6.25832 83.7173 7.56499C83.0647 8.26584 82.8815 8.93105 82.8815 9.81008C82.8929 17.8164 82.7097 25.8346 82.9387 33.829C83.2937 46.0048 72.9084 53.928 63.7254 53.9874C56.3744 54.0349 50.4203 51.5047 45.9318 45.4703C43.596 42.3343 42.4853 38.735 42.4853 34.7556C42.4853 26.4167 42.5082 18.0777 42.451 9.73881C42.451 9.03796 42.0731 8.25396 41.6609 7.6719C40.5846 6.16329 40.3441 4.55965 41.0082 2.86098C41.638 1.25734 42.8975 0.485211 44.5578 0.425817C48.073 0.29515 50.5806 2.73031 50.6035 6.4365C50.6493 11.2712 50.6035 16.1059 50.6149 20.9287L50.592 20.9405Z" fill="white"/>
<path d="M236.404 53.9161C234.743 53.8923 233.026 52.4669 232.076 49.9961C231.011 47.2283 229.992 44.4368 229.007 41.6453C228.721 40.8375 228.366 40.4574 227.45 40.4693C222.148 40.5168 216.835 40.5168 211.534 40.4693C210.698 40.4693 210.343 40.7781 210.068 41.5503C209.084 44.3537 208.076 47.1452 207.011 49.913C205.832 52.9896 203.53 54.32 200.37 53.8567C198.458 53.5716 196.981 52.063 196.74 50.1386C196.511 48.3212 197.599 46.6344 199.34 45.7435C199.901 45.4584 200.393 44.7457 200.622 44.1161C205.454 30.7881 210.263 17.46 215.038 4.10824C215.748 2.1126 216.893 0.746539 218.988 0.473326C221.232 0.188235 222.984 1.37612 223.843 3.75188C226.499 11.1049 229.144 18.4579 231.789 25.8108C233.988 31.9284 236.175 38.046 238.407 44.1517C238.614 44.7219 238.98 45.4822 239.449 45.6722C241.831 46.6463 242.255 49.0933 241.854 50.9583C241.453 52.8589 239.759 53.928 236.392 53.9042L236.404 53.9161ZM212.622 33.0569H226.419C224.095 26.3454 221.805 19.7645 219.492 13.1005C217.202 19.7526 214.935 26.3454 212.622 33.0569Z" fill="white"/>
<path d="M16.1044 53.9281C10.9977 53.8568 6.33744 52.8352 2.37569 49.4973C1.08182 48.4044 0.314661 47.074 0.497864 45.3159C0.784118 42.56 3.1772 41.1227 5.75348 42.1324C6.34889 42.37 6.88705 42.7382 7.43666 43.0827C11.8908 45.8148 16.6082 46.4563 21.5432 44.8408C23.9592 44.0449 26.2836 42.857 26.5813 39.8754C26.879 36.8345 24.8867 35.0289 22.528 33.8885C19.6883 32.5106 16.6655 31.5246 13.7686 30.2536C11.2152 29.1251 8.62747 28.0085 6.23439 26.5593C-1.56317 21.8315 -2.66238 8.85985 6.47484 3.28869C13.5281 -0.999561 20.799 -0.952045 28.1042 2.63536C29.1576 3.15802 30.1194 3.95391 31.0011 4.76167C32.7987 6.43658 33.0048 8.70543 31.6423 10.4635C30.1881 12.3522 28.024 12.6017 25.9172 11.0693C22.0127 8.2184 17.7532 7.68385 13.2533 9.0024C12.0969 9.33501 10.9519 9.97646 9.99004 10.7367C7.53971 12.6611 7.23055 15.7377 9.36028 18.0422C10.5396 19.3132 12.0282 20.3823 13.5625 21.1307C16.2876 22.4492 19.196 23.352 21.9326 24.6349C24.4974 25.8347 27.1767 26.975 29.4324 28.6737C37.0009 34.4231 36.3483 45.7198 28.2874 50.7089C24.4974 53.049 20.3295 53.94 16.1044 53.9281Z" fill="white"/>
<path d="M102.643 23.0669C102.643 23.6252 102.643 24.1954 102.643 24.7537C102.643 32.0473 102.666 39.3409 102.62 46.6463C102.62 47.8105 102.517 49.034 102.174 50.1387C101.315 52.9065 98.3952 54.4864 95.693 53.8211C92.7732 53.1084 91.5366 48.8083 93.6549 46.4682C94.3304 45.7317 94.5365 45.0308 94.5365 44.0805C94.5136 32.665 94.5365 21.2494 94.4907 9.82201C94.4907 9.1568 94.2045 8.33716 93.7808 7.85013C92.3381 6.19898 91.9717 4.27461 92.9564 2.52842C93.9068 0.841633 95.8533 0.0695092 97.8456 0.592177C99.838 1.11484 101.143 2.49279 102.197 4.25085C107.704 13.4094 113.246 22.5561 118.765 31.7147C119.028 32.1542 119.315 32.5818 119.715 33.2114C121.067 30.9544 122.349 28.8044 123.723 26.5117C125.418 29.2439 127.044 31.7978 128.589 34.3993C128.772 34.7081 128.635 35.3971 128.429 35.7653C126.849 38.4856 125.257 41.194 123.597 43.8548C121.639 47.0146 118.044 47.0146 116.074 43.8786C111.987 37.369 107.933 30.8356 103.868 24.3142C103.582 23.8509 103.273 23.4114 102.975 22.96C102.861 22.9956 102.758 23.0313 102.643 23.0669Z" fill="white"/>
<path d="M159.608 26.5117C160.994 28.828 162.265 30.9425 163.616 33.1994C163.994 32.6055 164.292 32.1422 164.578 31.6671C170.131 22.4848 175.673 13.2906 181.215 4.10823C182.497 1.98192 184.158 0.497073 186.711 0.437679C188.486 0.402042 189.986 1.39986 190.604 3.03914C191.245 4.74969 190.822 6.23454 189.745 7.65999C189.287 8.26581 188.852 9.10921 188.852 9.83382C188.795 21.2969 188.795 32.7481 188.852 44.2111C188.852 44.9238 189.207 45.7435 189.642 46.3137C190.867 47.9054 190.97 49.6041 190.318 51.3859C189.699 53.0727 188.268 53.928 186.402 53.8923C183.093 53.8448 180.791 51.4691 180.768 47.8935C180.722 40.0773 180.745 32.2729 180.745 24.4566C180.745 23.9459 180.745 23.4351 180.482 22.7936C180.207 23.1856 179.932 23.5657 179.681 23.9696C175.616 30.4911 171.551 37.0125 167.486 43.5221C165.219 47.1452 161.738 47.1214 159.517 43.4627C157.982 40.9326 156.517 38.3667 154.948 35.8722C154.467 35.1119 154.513 34.5893 154.983 33.8647C156.517 31.5127 157.982 29.1131 159.62 26.4879L159.608 26.5117Z" fill="white"/>
<path d="M137.853 20.0615C135.631 23.7558 133.627 27.1056 131.532 30.5861C129.849 27.8065 128.257 25.2288 126.734 22.6036C126.563 22.3066 126.597 21.677 126.78 21.3682C130.376 15.2743 133.948 9.15676 137.646 3.1342C139.879 -0.500719 143.44 -0.488842 145.673 3.16983C149.337 9.16863 152.898 15.2268 156.471 21.285C156.665 21.6176 156.768 22.2472 156.596 22.5442C155.051 25.2169 153.436 27.854 151.776 30.598C149.692 27.1413 147.677 23.7915 145.673 20.4535C145.581 20.4891 145.49 20.5248 145.387 20.5604C145.364 21.0118 145.33 21.4632 145.33 21.9146C145.33 29.2557 145.307 36.5968 145.352 43.926C145.352 44.7219 145.616 45.5891 145.982 46.2899C147.162 48.5113 146.795 51.1246 144.975 52.7401C143.12 54.3675 140.108 54.3556 138.276 52.7045C136.467 51.0771 136.112 48.4637 137.349 46.2543C137.635 45.7554 137.91 45.1496 137.91 44.5913C137.944 36.8225 137.933 29.0656 137.933 21.2969C137.933 21.0356 137.898 20.7742 137.841 20.0853L137.853 20.0615Z" fill="white"/>
</svg>
