<svg fill="none" height="84" viewBox="0 0 280 84" width="280" xmlns="http://www.w3.org/2000/svg"><path d="m19.3209 12.9104h-19.3209v-12.9104h53.6279v12.9104h-19.3209v54.7969h-14.9861zm17.1614 40.0709c0-9.9459 6.7854-15.8749 22.3376-17.5018l10.6491-1.1468v-.6688c0-5.451-3.7707-8.5119-9.4239-8.5119-5.184 0-9.0478 2.9645-9.6139 8.3191h-13.9489c1.2253-11.2856 10.8392-19.5083 23.7508-19.5083 13.8539 0 23.8459 7.3631 23.8459 21.4223v32.3242h-14.608v-5.9289c-2.4505 4.2077-8.1987 6.6942-14.703 6.6942-11.2153 0-18.2837-6.1198-18.2837-15.4933zm21.3004 4.4949c6.8803 0 11.4033-4.8765 11.6863-12.5288l-10.3681 1.1469c-5.5601.5744-8.0106 2.9645-8.0106 6.2162 0 3.0609 2.6385 5.1637 6.6924 5.1637zm29.594-57.4762h14.6083v67.7073h-14.6083zm18.0003 0h14.608v67.7073h-14.608zm16.786 52.9813c0-9.9459 6.785-15.8749 22.337-17.5018l10.649-1.1468v-.6688c0-5.451-3.77-8.5119-9.424-8.5119-5.184 0-9.047 2.9645-9.614 8.3191h-13.948c1.225-11.2856 10.839-19.5083 23.75-19.5083 13.854 0 23.846 7.3631 23.846 21.4223v32.3242h-14.608v-5.9289c-2.45 4.2077-8.198 6.6942-14.703 6.6942-11.215 0-18.283-6.1198-18.283-15.4933zm21.3 4.4949c6.88 0 11.403-4.8765 11.686-12.5288l-10.368 1.1469c-5.56.5744-8.01 2.9645-8.01 6.2162 0 3.0609 2.638 5.1637 6.692 5.1637zm29.388-42.7481h14.608v6.2162c2.546-3.539 8.765-6.9815 16.211-6.9815 11.404 0 19.416 7.6503 19.416 19.0302v34.7143h-14.515v-30.7937c0-5.929-3.392-9.946-9.236-9.946-7.163 0-11.874 5.6418-11.874 17.0218v23.7179h-14.608v-52.9792zm52.205 26.4896c0-16.7365 10.178-27.2549 24.976-27.2549 6.502 0 12.252 2.4865 15.362 6.5978v-20.5606h14.608v67.7073h-14.608v-5.8325c-3.11 4.1113-8.672 6.5978-15.174 6.5978-14.986 0-25.164-10.5204-25.164-27.2549zm27.521 14.6317c7.635 0 12.819-5.8346 12.819-14.6317s-5.184-14.7281-12.819-14.7281c-7.634 0-12.818 5.929-12.818 14.7281s5.184 14.6317 12.818 14.6317zm-141.012 25.0315c-1.621 0-3.003-1.1951-3.003-3.5691s1.362-3.569 3.003-3.569c1.215 0 2.136.8214 2.264 2.0004h3.646c-.201-3.0087-2.614-5.1196-5.912-5.1196-3.684 0-6.649 2.3539-6.649 6.6902s3.056 6.6902 6.649 6.6902 5.673-2.149 5.948-5.0633h-3.646c-.202 1.195-1.142 1.9442-2.302 1.9442zm13.499-10.2593c-3.903 0-6.832 2.84-6.832 6.6902s2.927 6.6902 6.832 6.6902c3.906 0 6.778-2.84 6.778-6.6902s-2.91-6.6902-6.778-6.6902zm0 10.2593c-1.878 0-3.186-1.5325-3.186-3.5691s1.308-3.569 3.186-3.569c1.879 0 3.132 1.5324 3.132 3.569s-1.309 3.5691-3.132 3.5691zm11.75-10.1107h-3.646v13.0812h9.08v-3.1212h-5.434zm10.184 0h-3.646v13.0812h9.08v-3.1212h-5.434zm10.184 8.1002h4.549v-3.1212h-4.549v-1.8598h5.729v-3.1212h-9.375v13.0812h9.485v-3.1212h-5.837v-1.8598zm12.827.5463h3.151c-.265.8576-1.213 1.5766-2.775 1.5766-1.72 0-3.058-1.2713-3.058-3.6815 0-2.1671 1.233-3.569 2.965-3.569 1.267 0 2.076.715 2.272 1.6409h3.676c-.321-2.7697-2.736-4.7621-5.948-4.7621-3.923 0-6.611 2.6351-6.611 6.6902 0 4.4668 3.018 6.6902 5.867 6.6902 1.312 0 2.783-.4157 3.612-1.5124v1.3638h3.171v-7.2907h-6.326v2.856zm11.593-.5463h4.549v-3.1212h-4.549v-1.8598h5.728v-3.1212h-9.374v13.0812h9.485v-3.1212h-5.837v-1.8598z" fill="#000"/></svg>
