<?xml version="1.0" encoding="UTF-8"?>
<svg id="Laag_2" data-name="Laag 2" xmlns="http://www.w3.org/2000/svg" viewBox="0 0 235.76 78.97">
  <defs>
    <style>
      .cls-1 {
        fill: #439999;
      }

      .cls-2 {
        fill: #4b9f9e;
      }

      .cls-3 {
        fill: #449a9b;
      }

      .cls-4 {
        fill: #80b8b6;
      }

      .cls-5 {
        fill: #6eb1ae;
      }

      .cls-6 {
        fill: #439799;
      }

      .cls-7 {
        fill: #4c9b99;
      }

      .cls-8 {
        fill: #5fa9a6;
      }

      .cls-9 {
        fill: #90c3be;
      }

      .cls-10 {
        fill: #499;
      }

      .cls-11 {
        fill: #47a6aa;
      }

      .cls-12 {
        fill: #529f9f;
      }

      .cls-13 {
        fill: #53a2a1;
      }

      .cls-14 {
        fill: #499d9f;
      }
    </style>
  </defs>
  <g id="Laag_1-2" data-name="Laag 1">
    <polygon class="cls-11" points="96.52 66.82 92.69 77.47 92.65 77.47 88.79 66.82 87.57 66.82 91.99 78.72 93.3 78.72 97.72 66.82 96.52 66.82"/>
    <g>
      <path class="cls-11" d="M103.19,78.01c-2.17,0-3.93-.75-3.88-3.2h-1.13c-.13,2.9,1.93,4.17,4.75,4.17,4.22,0,4.55-2.58,4.55-3.4,0-1.95-1.4-2.68-3.08-3.13l-2.9-.72c-.97-.23-1.8-.7-1.8-1.82,0-1.77,1.43-2.37,2.98-2.37,1.68,0,3.18.92,3.25,2.73h1.13c.02-2.43-2.05-3.7-4.4-3.7-3.35,0-4.1,2.18-4.1,3.35,0,1.85,1.28,2.52,2.68,2.87l2.65.65c1.1.27,2.45.8,2.45,2.15,0,1.73-1.9,2.42-3.15,2.42"/>
      <path class="cls-11" d="M114.27,66.57c-3.75,0-5.62,2.95-5.62,6.2s1.87,6.2,5.62,6.2,5.6-2.95,5.6-6.2-1.87-6.2-5.6-6.2M114.27,78.01c-3.15,0-4.48-2.63-4.48-5.23s1.33-5.23,4.48-5.23,4.47,2.63,4.47,5.23-1.33,5.23-4.47,5.23"/>
      <path class="cls-11" d="M132.36,77.56h.03v1.17h1.8v-11.9h-1.9v4.4h-.03c-.58-.95-1.78-1.35-2.87-1.35-1.88,0-3.73,1.37-3.73,4.48,0,2.58,1.32,4.6,4.03,4.6,1.08,0,2.17-.42,2.67-1.4M129.94,77.46c-1.65,0-2.38-1.47-2.38-2.95s.63-3.13,2.42-3.13c1.47,0,2.38,1.13,2.38,3.03,0,1.5-.72,3.05-2.42,3.05"/>
      <path class="cls-11" d="M143.97,76.02h-1.8c-.33.95-1,1.43-2.1,1.43-1.58,0-2.32-1.2-2.32-2.55h6.33c.32-2.58-1.35-5.03-4.07-5.03-2.57,0-4.17,2.1-4.17,4.55,0,2.65,1.52,4.53,4.22,4.53,1.88,0,3.48-1.05,3.9-2.93M140.02,71.37c1.28,0,2.1,1.08,2.17,2.28h-4.43c.05-1.28.95-2.28,2.27-2.28"/>
      <polygon class="cls-11" points="159.14 68.41 159.14 66.82 150.09 66.82 150.09 68.62 156.49 68.62 149.56 77.02 149.56 78.72 159.31 78.72 159.31 76.92 152.21 76.92 159.14 68.41"/>
      <path class="cls-11" d="M164.63,69.87c-2.77,0-4.35,1.9-4.35,4.53s1.58,4.55,4.35,4.55,4.35-1.9,4.35-4.55-1.58-4.53-4.35-4.53M164.63,77.46c-1.7,0-2.45-1.55-2.45-3.05s.75-3.03,2.45-3.03,2.45,1.55,2.45,3.03-.75,3.05-2.45,3.05"/>
      <path class="cls-11" d="M175.09,69.87c-1.13,0-2.12.58-2.68,1.53l-.03-.03v-1.27h-1.8v8.62h1.9v-5.08c0-1.27.82-2.27,2.08-2.27,1.12,0,1.65.58,1.68,1.93v5.42h1.9v-5.92c0-1.93-1.18-2.93-3.05-2.93"/>
      <path class="cls-11" d="M184.66,69.87c-1.13,0-2.12.58-2.68,1.53l-.03-.03v-1.27h-1.8v8.62h1.9v-5.08c0-1.27.82-2.27,2.08-2.27,1.12,0,1.65.58,1.68,1.93v5.42h1.9v-5.92c0-1.93-1.18-2.93-3.05-2.93"/>
      <path class="cls-11" d="M193.47,69.87c-2.57,0-4.17,2.1-4.17,4.55,0,2.65,1.52,4.53,4.22,4.53,1.88,0,3.48-1.05,3.9-2.93h-1.8c-.33.95-1,1.43-2.1,1.43-1.58,0-2.32-1.2-2.32-2.55h6.33c.32-2.58-1.35-5.03-4.07-5.03M191.2,73.66c.05-1.28.95-2.28,2.27-2.28s2.1,1.08,2.17,2.28h-4.43Z"/>
      <path class="cls-11" d="M203.5,69.87c-1.13,0-2.12.58-2.58,1.37h-.03v-4.42h-1.9v11.9h1.9v-5.08c0-1.27.82-2.27,2.08-2.27,1.12,0,1.65.58,1.68,1.93v5.42h1.9v-5.92c0-1.93-1.18-2.93-3.05-2.93"/>
      <path class="cls-11" d="M212.51,69.87c-2.77,0-4.35,1.9-4.35,4.53s1.58,4.55,4.35,4.55,4.35-1.9,4.35-4.55-1.58-4.53-4.35-4.53M212.51,77.46c-1.7,0-2.45-1.55-2.45-3.05s.75-3.03,2.45-3.03,2.45,1.55,2.45,3.03-.75,3.05-2.45,3.05"/>
      <path class="cls-11" d="M222.2,69.87c-2.57,0-4.17,2.1-4.17,4.55,0,2.65,1.52,4.53,4.22,4.53,1.88,0,3.48-1.05,3.9-2.93h-1.8c-.33.95-1,1.43-2.1,1.43-1.58,0-2.32-1.2-2.32-2.55h6.33c.32-2.58-1.35-5.03-4.07-5.03M219.93,73.66c.05-1.28.95-2.28,2.27-2.28s2.1,1.08,2.17,2.28h-4.43Z"/>
      <polygon class="cls-11" points="232.14 73.27 235.44 70.11 233.1 70.11 229.67 73.59 229.67 66.82 227.77 66.82 227.77 78.72 229.67 78.72 229.67 75.64 230.81 74.54 233.44 78.72 235.76 78.72 232.14 73.27"/>
      <path class="cls-4" d="M13.38,55.29h0c2.79-2.36,5.92-4.97,9.19-7.69,5.16-19.54,10.86-42.86,9.72-43.28-.01,0-.02,0-.04,0-1.33,0-12.32,21.97-21.03,40.23.79,3.78,1.52,7.43,2.15,10.74"/>
      <path class="cls-5" d="M19.4,59.37c3.25-.81,6.85-1.68,10.61-2.58,13.09-15.77,28.77-35.41,27.9-36.29-.02-.02-.06-.03-.11-.03-1.78,0-20.05,14.58-35.22,27.14-.53,2.02-1.06,4-1.58,5.92-.34,1.27-.68,2.52-1.01,3.72-.2.72-.39,1.43-.58,2.12"/>
      <path class="cls-13" d="M14.37,60.64h0c1.55-.4,3.24-.82,5.03-1.27.19-.69.39-1.4.58-2.12.33-1.21.67-2.45,1.01-3.72.52-1.91,1.04-3.89,1.58-5.92-3.28,2.71-6.4,5.33-9.19,7.69.36,1.9.69,3.69.99,5.34"/>
      <path class="cls-13" d="M20.99,53.52c-.34,1.28-.68,2.52-1.01,3.72.33-1.21.67-2.45,1.01-3.72"/>
      <path class="cls-8" d="M35,67.45c18.43-8.26,40.09-18.45,39.7-19.6-.04-.11-.29-.16-.73-.16-4.24,0-25.96,4.79-43.97,9.09-1.43,1.72-2.82,3.39-4.16,4.99-.95,1.13-1.88,2.24-2.77,3.29,3.66.7,7.72,1.51,11.93,2.39"/>
      <path class="cls-14" d="M18.07,64.14c1.56.28,3.23.59,5,.92.89-1.05,1.82-2.15,2.77-3.29,1.34-1.6,2.73-3.27,4.16-4.99-3.76.9-7.36,1.78-10.6,2.58-.47,1.7-.92,3.3-1.33,4.77"/>
      <path class="cls-14" d="M23.07,65.06h0c.89-1.05,1.82-2.15,2.77-3.29-.95,1.13-1.88,2.24-2.77,3.29h0"/>
      <path class="cls-3" d="M14.87,63.59h0c.57.09,1.17.19,1.78.3.46.08.93.16,1.41.25.42-1.47.86-3.07,1.33-4.77-1.79.45-3.49.87-5.03,1.27.07.4.14.78.2,1.17.11.62.21,1.22.3,1.79"/>
      <path class="cls-12" d="M33.47,68.13c-1.54.69-3.05,1.36-4.51,2.01-.6.26-1.19.52-1.77.78,8.02,3.74,15.86,7.45,15.93,7.48h35.28c0-1.2-23.4-6.78-43.4-10.95h0,0c-.51.23-1.02.46-1.53.68"/>
      <path class="cls-10" d="M23.88,69.37c1.09.51,2.2,1.03,3.31,1.54.58-.26,1.17-.52,1.77-.78,1.47-.65,2.98-1.32,4.51-2.01.51-.23,1.01-.45,1.53-.68-4.21-.88-8.27-1.69-11.93-2.39-.83.99-1.64,1.93-2.4,2.83.48.22.97.45,1.46.68.58.27,1.16.54,1.75.81"/>
      <path class="cls-10" d="M35,67.45h0c-.51.23-1.02.46-1.53.68.51-.23,1.01-.45,1.53-.68"/>
      <path class="cls-10" d="M27.19,70.92c.58-.26,1.17-.52,1.77-.78-.6.26-1.19.52-1.77.78h0"/>
      <path class="cls-6" d="M18.07,64.14h0c-.04.14-.07.27-.11.4-.18.64-.36,1.27-.53,1.86.19.09.4.18.59.27.65.3,1.32.6,2.01.92.22.1.42.2.64.3h0c.76-.89,1.57-1.84,2.4-2.83-1.77-.34-3.45-.65-5-.92"/>
      <path class="cls-6" d="M23.07,65.06h0c-1.77-.34-3.45-.65-5-.92h0c1.56.28,3.23.59,5,.92"/>
      <path class="cls-6" d="M15.16,65.36h0c.71.32,1.46.67,2.27,1.03.17-.59.35-1.21.53-1.86.04-.13.07-.26.11-.4-.49-.09-.95-.17-1.41-.25-.61-.11-1.21-.21-1.78-.3.1.62.2,1.21.28,1.77Z"/>
      <path class="cls-6" d="M14.87,63.59h0c.57.09,1.17.2,1.78.3-.61-.11-1.21-.21-1.78-.3"/>
      <path class="cls-6" d="M18.07,64.14h0c-.04.14-.07.27-.11.4.04-.13.07-.26.11-.4"/>
      <path class="cls-12" d="M7.74,78.39h0s.09,0,.09,0h0s-.06,0-.09,0"/>
      <path class="cls-7" d="M29.62,78.4h13.5c-.07-.03-7.9-3.74-15.93-7.48h0c-6.3,2.77-11.64,5.05-14.73,6.27h0c-.21.15-.43.27-.65.39-.6.32-1.21.52-1.81.65-.59.12-1.16.17-1.7.17h21.31Z"/>
      <path class="cls-1" d="M7.94,78.39s-.02,0-.03,0h-.02.4c-.08,0-.16,0-.24,0-.04,0-.07,0-.11,0"/>
      <path class="cls-1" d="M27.19,70.92c8.02,3.74,15.86,7.45,15.93,7.48-.07-.03-7.9-3.74-15.93-7.48"/>
      <path class="cls-6" d="M11.82,77.57c.22-.11.43-.24.65-.39-.04.02-.08.03-.13.05-.23.09-.45.17-.65.25-.04.02-.08.03-.11.04,0,0,0,0,0,0,0,0,0,0-.01,0-.22.1-.43.19-.64.26-.02,0-.04.02-.06.02-.22.08-.43.14-.63.2h0s0,0,0,0c-.68.22-1.41.34-2.16.36.08,0,.16,0,.24,0h0c.54,0,1.11-.05,1.7-.17.6-.13,1.21-.33,1.81-.65"/>
      <path class="cls-6" d="M11.82,77.57c.22-.12.43-.24.65-.39h0c-.21.15-.43.27-.65.39"/>
      <path class="cls-6" d="M8.31,78.4h0c.54,0,1.11-.05,1.7-.17-.59.12-1.16.17-1.7.17"/>
      <path class="cls-6" d="M13.69,76.08c-.11.12-.22.22-.33.33-.2.2-.4.38-.61.54-.1.08-.2.16-.3.23,3.08-1.22,8.43-3.5,14.73-6.27-1.11-.52-2.22-1.03-3.31-1.54-.59-.27-1.17-.54-1.75-.81-.49-.23-.98-.46-1.46-.68h0s0,0,0,0c-2.45,2.87-4.49,5.21-5.86,6.71-.31.58-.69,1.07-1.11,1.48,0,0,0,0,0,0,0,0,0,0,0,0"/>
      <path class="cls-6" d="M22.13,68.56c-.49-.23-.98-.46-1.46-.68.48.22.97.45,1.46.68"/>
      <path class="cls-6" d="M23.88,69.37c1.09.51,2.2,1.03,3.31,1.54h0c-1.11-.52-2.22-1.03-3.31-1.54"/>
      <path class="cls-6" d="M12.46,77.19h0c3.08-1.22,8.43-3.5,14.73-6.27-6.3,2.77-11.64,5.05-14.73,6.27"/>
      <path class="cls-6" d="M12.46,77.19h0c.1-.07.2-.16.3-.23.21-.16.41-.34.61-.54.11-.11.22-.21.33-.33-.65.65-1.39,1.11-2.12,1.45.04-.01.08-.03.11-.04.2-.08.42-.16.65-.25.04-.02.08-.03.13-.05"/>
      <polyline class="cls-6" points="12.46 77.19 12.46 77.19 12.46 77.19 12.46 77.19"/>
      <path class="cls-6" d="M11.57,77.53s.08-.03.11-.04c-.04.01-.08.03-.11.04"/>
      <path class="cls-6" d="M12.34,77.24s.08-.03.13-.05h0s-.08.03-.13.05"/>
      <path class="cls-6" d="M13.37,76.41c.11-.11.22-.21.33-.33t0,0c-.1.12-.22.22-.32.33"/>
      <path class="cls-6" d="M12.46,77.19c.1-.07.2-.16.3-.23-.1.08-.2.16-.3.23"/>
      <path class="cls-6" d="M18.02,66.67c-.2-.09-.4-.18-.59-.27h0,0c-.81,2.8-1.47,4.98-1.9,6.27,0,0,0,0,0,0h0c-.02.08-.04.16-.06.24-.16.63-.38,1.19-.65,1.69,1.37-1.5,3.4-3.84,5.86-6.71-.22-.1-.43-.2-.64-.3-.69-.32-1.36-.63-2.01-.92"/>
      <path class="cls-6" d="M20.02,67.59c.22.1.43.2.64.3-.22-.1-.43-.2-.64-.3"/>
      <path class="cls-6" d="M18.02,66.67c-.2-.09-.4-.18-.59-.27.19.09.4.18.59.27"/>
      <path class="cls-6" d="M17.42,66.39c-.8-.37-1.56-.71-2.27-1.03.37,2.42.58,4.22.58,5.19,0,.61-.06,1.16-.15,1.68-.02.14-.04.29-.07.43.44-1.29,1.1-3.47,1.9-6.27"/>
      <path class="cls-6" d="M17.42,66.39c-.8-.37-1.56-.71-2.27-1.03.71.32,1.46.66,2.27,1.03"/>
      <path class="cls-6" d="M17.42,66.39c-.81,2.81-1.46,4.98-1.9,6.27h0c.44-1.29,1.1-3.47,1.9-6.27Z"/>
      <path class="cls-9" d="M.76,36.89c.85,1.8,2.34,4.94,4.04,8.56.95,2.02,1.97,4.2,2.99,6.37,1.08-2.3,2.24-4.75,3.43-7.26C7.02,24.31,1.22,0,0,0v35.28s0,0,0,0H0s.29.6.76,1.61"/>
      <path class="cls-5" d="M.04,69.84H.04c0-.07.01-.13.02-.2.02-.19.05-.38.09-.56H.14s.01-.1.03-.14c0,0,0,0,0,0,.04-.22.1-.43.16-.65,0,0,0,0,0,0,.02-.06.04-.12.06-.18t0,0c.06-.17.12-.33.18-.5,0,0,0,0,0,0,.02-.05.04-.1.06-.15h0c.09-.2.18-.39.28-.58,0,0,0,0,0,0,.03-.05.06-.11.09-.16.04-.08.08-.16.13-.23h0s0,0,0,0t0,0c.68-1.63,1.77-4.1,3.16-7.13.95-2.09,2.05-4.45,3.24-6.99.09-.19.17-.37.26-.56h0c-1.02-2.17-2.03-4.35-2.99-6.37-1.7-3.62-3.19-6.76-4.04-8.56C.29,35.88,0,35.29,0,35.28v35.23c0-.23.02-.45.04-.68"/>
      <path class="cls-5" d="M7.79,51.81h0c-1.02-2.17-2.04-4.34-2.99-6.37.95,2.02,1.97,4.2,2.99,6.37"/>
      <path class="cls-5" d="M0,35.28H0s.29.6.76,1.61C.29,35.88,0,35.29,0,35.28"/>
      <path class="cls-8" d="M10.53,57.71c.9-.77,1.85-1.58,2.84-2.41h0c-.63-3.31-1.37-6.96-2.15-10.74h0c-1.2,2.51-2.36,4.96-3.44,7.26.41.87.82,1.75,1.22,2.61.31.67.62,1.34.93,1.99.2.43.4.87.6,1.29"/>
      <path class="cls-8" d="M13.38,55.29h0c-.63-3.31-1.36-6.96-2.15-10.74t0,0c.79,3.78,1.52,7.43,2.15,10.74"/>
      <path class="cls-13" d="M4.3,59.36c-1.38,3.03-2.48,5.5-3.15,7.12.37-.6.81-1.15,1.32-1.63h0c1.14-1.14,4.09-3.74,8.07-7.14-.2-.42-.4-.86-.6-1.29-.3-.66-.61-1.32-.93-1.99-.4-.86-.81-1.73-1.22-2.61-.09.19-.17.37-.26.56-1.19,2.54-2.28,4.9-3.24,6.99"/>
      <path class="cls-13" d="M7.53,52.37c.09-.19.17-.37.26-.56-.09.19-.17.37-.26.56"/>
      <path class="cls-13" d="M1.14,66.48s0,0,0,0c.68-1.62,1.77-4.09,3.15-7.12-1.38,3.03-2.48,5.5-3.16,7.13"/>
      <path class="cls-13" d="M9.01,54.42c.31.67.62,1.34.93,1.99-.3-.65-.61-1.32-.93-1.99"/>
      <path class="cls-14" d="M10.53,57.71h0c.57,1.23,1.11,2.41,1.61,3.5.7-.18,1.44-.37,2.22-.57-.29-1.65-.62-3.44-.99-5.34-.99.84-1.94,1.65-2.84,2.41"/>
      <path class="cls-14" d="M14.37,60.64h0c-.29-1.65-.62-3.44-.99-5.34t0,0c.36,1.9.7,3.69.99,5.34"/>
      <path class="cls-14" d="M10.53,57.71h0c.9-.77,1.85-1.57,2.84-2.41-.99.84-1.94,1.65-2.84,2.41"/>
      <path class="cls-2" d="M5.37,63.11c1.14-.39,3.53-1.05,6.78-1.9-.5-1.09-1.04-2.27-1.61-3.5-3.98,3.4-6.93,6-8.07,7.14h0c.82-.77,1.81-1.37,2.91-1.73h0Z"/>
      <path class="cls-2" d="M10.53,57.71h0c-3.98,3.4-6.93,6-8.07,7.14h0s0,0,0,0c1.14-1.14,4.09-3.74,8.07-7.14"/>
      <path class="cls-1" d="M14.37,60.64c-.78.2-1.51.39-2.21.57.34.74.66,1.45.96,2.1.56.09,1.15.18,1.77.28-.09-.57-.2-1.17-.3-1.79-.07-.38-.13-.77-.2-1.17Z"/>
      <path class="cls-1" d="M14.57,61.8c-.07-.38-.13-.77-.2-1.17h0c.07.4.14.78.2,1.17"/>
      <path class="cls-6" d="M7.85,62.72h0c.1,0,.2,0,.31,0h0,0c1.03.04,2.74.24,4.95.58-.3-.65-.62-1.35-.96-2.1-3.25.85-5.64,1.52-6.78,1.9h0c.76-.25,1.58-.39,2.43-.39.01,0,.03,0,.04,0h0Z"/>
      <path class="cls-6" d="M13.11,63.31h0c-.3-.65-.62-1.35-.96-2.1.34.74.66,1.45.96,2.1"/>
      <path class="cls-6" d="M13.11,63.31c.23.5.44.98.64,1.42h0s0,0,0,0c.18.08.36.16.55.25.15.07.31.14.47.21.13.06.26.12.39.18h0c-.09-.56-.18-1.15-.28-1.77-.62-.1-1.21-.2-1.76-.28"/>
      <path class="cls-6" d="M13.11,63.31c.56.09,1.15.18,1.76.28-.62-.1-1.21-.2-1.76-.28Z"/>
      <path class="cls-6" d="M13.11,63.31h0c-2.21-.34-3.92-.55-4.95-.58,1.5.06,2.89.54,4.06,1.33.17.07.36.16.55.24.31.14.63.28.98.43-.2-.44-.41-.92-.64-1.42"/>
      <path class="cls-6" d="M13.11,63.31c-2.21-.34-3.92-.55-4.95-.58h0c1.03.04,2.74.24,4.95.58"/>
      <path class="cls-6" d="M13.75,64.73c-.2-.44-.41-.92-.64-1.42.23.5.44.98.64,1.42"/>
      <path class="cls-6" d="M11.05,77.73c-.13.05-.25.09-.36.13-.1.04-.19.07-.29.1-.06.02-.12.04-.18.06.2-.06.41-.12.62-.2.02,0,.04-.02.06-.02.21-.08.42-.16.63-.26-.17.07-.34.13-.49.18"/>
      <path class="cls-6" d="M10.91,77.8s-.04.02-.06.02c.02,0,.04-.02.06-.02"/>
      <path class="cls-6" d="M14.57,74.86c-.11.19-.22.36-.34.53-.17.24-.34.48-.52.69.41-.41.79-.9,1.11-1.48-.08.09-.16.18-.24.26h0s0,0,0,0"/>
      <path class="cls-6" d="M14.23,75.39c.12-.17.23-.34.34-.53-.41.45-.75.8-1.01,1.06,0,0,0,0,0,0h0c-.1.1-.21.19-.31.29-.06.06-.12.11-.18.17,0,0,0,0,0,0-.06.05-.11.11-.17.16,0,0,0,0,0,0-.02.02-.04.03-.07.05-.63.52-1.35.95-2.12,1.25.11-.04.23-.08.36-.13.16-.06.33-.12.52-.2,0,0-.02,0-.03.01,0,0,.01,0,.02,0,0,0,0,0,.01,0h0c.73-.34,1.48-.8,2.13-1.45,0,0,0,0,0,0,0,0,0,0,0,0h0s0,0,0,0c.18-.21.36-.44.53-.69"/>
      <path class="cls-6" d="M11.57,77.54h0s0,0-.01,0c0,0,0,0,.01,0,0,0,0,0,0,0,0,0,0,0,0,0"/>
      <polyline class="cls-6" points="13.7 76.08 13.7 76.08 13.7 76.08 13.7 76.08 13.7 76.08 13.7 76.08 13.7 76.08"/>
      <path class="cls-6" d="M13.69,76.08s0,0,0,0c-.65.65-1.4,1.12-2.13,1.45,0,0,0,0,0,0,.73-.34,1.47-.8,2.12-1.45"/>
      <polyline class="cls-6" points="11.57 77.54 11.57 77.54 11.57 77.53 11.57 77.54"/>
      <polyline class="cls-6" points="13.69 76.08 13.7 76.08 13.7 76.08 13.69 76.09 13.69 76.08"/>
      <path class="cls-6" d="M11.57,77.54c-.18.07-.36.14-.52.2.15-.06.31-.12.49-.18.01,0,.02,0,.03-.01"/>
      <path class="cls-6" d="M13.7,76.08s0,0,0,0c.18-.21.36-.44.53-.69-.17.25-.35.48-.53.69"/>
      <path class="cls-6" d="M15.46,72.83c-.05.15-.1.3-.15.42-.11.29-.22.57-.34.83-.13.27-.26.53-.4.77.08-.09.16-.17.24-.26.27-.49.49-1.06.65-1.69.02-.08.04-.15.06-.23-.02.06-.04.11-.06.16"/>
      <path class="cls-6" d="M15.52,72.67c-.02.08-.04.16-.06.23.02-.08.04-.16.06-.24,0,0,0,0,0,0"/>
      <path class="cls-6" d="M14.97,74.09c.12-.26.24-.54.34-.83.05-.12.1-.27.15-.42.02-.05.04-.1.06-.16,0,0,0,0,0,0h0c.03-.14.04-.29.07-.43.09-.52.15-1.07.15-1.68,0-.97-.21-2.77-.58-5.19-.13-.06-.26-.12-.39-.18-.16-.07-.31-.14-.47-.21-.19-.08-.37-.17-.55-.25.04.08.07.16.11.24.23.52.44,1,.62,1.41t0,0h0c.22.34.4.71.56,1.08.02.05.04.1.06.15.07.17.13.34.19.52,0,0,0,0,0,0,.02.05.03.09.05.14h0c.07.22.12.44.17.67t0,0s.01.09.02.13c0,0,0,0,0,0,.04.19.06.38.09.57h0c0,.07.01.13.02.19h0c.02.24.04.47.04.71,0,0,0,0,0,0,0,.07,0,.13,0,.2h0c.05,1.8-.57,3.2-1.4,4.28-.03.04-.06.08-.09.12h0s0,0,0,0c-.2.27-.41.53-.64.78h0s0,0,0,0c.26-.26.6-.62,1.01-1.07,0,0,0,0,0,0h0s0,0,0,0c0,0,0,0,0,0h0c.14-.24.28-.5.4-.77"/>
      <polyline class="cls-6" points="15.52 72.67 15.52 72.67 15.52 72.67 15.52 72.67 15.52 72.67 15.52 72.67 15.52 72.67 15.52 72.67 15.52 72.67"/>
      <path class="cls-6" d="M15.59,72.24c-.02.14-.04.29-.07.43,0,0,0,0,0,0,.03-.13.04-.29.07-.43"/>
      <polyline class="cls-6" points="15.52 72.67 15.52 72.67 15.52 72.67 15.52 72.67 15.52 72.67"/>
      <path class="cls-6" d="M13.75,64.73c.18.08.36.16.55.25-.19-.09-.37-.17-.55-.25h0"/>
      <path class="cls-6" d="M14.77,65.19c.13.06.26.11.39.18-.13-.06-.26-.12-.39-.18"/>
      <polyline class="cls-6" points="14.57 74.86 14.57 74.86 14.57 74.86 14.57 74.86 14.57 74.86"/>
      <path class="cls-6" d="M14.57,74.86c-.41.45-.75.8-1.01,1.07.26-.26.6-.62,1.01-1.06,0,0,0,0,0,0"/>
      <path class="cls-6" d="M14.57,74.86h0c.14-.24.27-.5.4-.77-.13.27-.26.53-.4.77"/>
      <path class="cls-6" d="M15.46,72.83c.02-.05.04-.1.06-.16h0c-.02.05-.04.11-.06.16"/>
      <polyline class="cls-6" points="15.52 72.67 15.52 72.67 15.52 72.67 15.52 72.67 15.52 72.67"/>
      <path class="cls-6" d="M14.28,75.03c.82-1.07,1.44-2.48,1.4-4.27,0,.03,0,.05,0,.08,0,.19-.02.38-.04.57,0,.02,0,.05,0,.07-.02.2-.05.39-.09.59,0,0,0,0,0,0-.01.06-.03.12-.04.18h0c-.04.18-.08.35-.13.52,0,0,0,0,0,0-.02.06-.04.12-.06.19h0c-.26.79-.63,1.53-1.11,2.19.03-.04.06-.08.09-.12"/>
      <path class="cls-6" d="M13.75,64.73h0c-.35-.16-.67-.3-.98-.43-.19-.08-.38-.17-.55-.24.91.61,1.68,1.4,2.26,2.33-.18-.41-.39-.89-.62-1.41-.04-.08-.07-.15-.11-.24h0"/>
      <polyline class="cls-6" points="13.75 64.73 13.75 64.73 13.75 64.73 13.75 64.73 13.75 64.73"/>
      <path class="cls-6" d="M13.75,64.73h0s0,0,0,0c-.35-.16-.67-.3-.98-.43.31.14.63.28.98.43"/>
      <polyline class="cls-6" points="13.75 64.73 13.75 64.73 13.75 64.73 13.75 64.73 13.75 64.73"/>
      <path class="cls-6" d="M14.19,75.15s.06-.08.09-.12c-.03.04-.06.08-.09.12,0,0,0,0,0,0"/>
      <path class="cls-6" d="M14.48,66.38c-.18-.41-.39-.89-.62-1.41.23.52.44,1,.62,1.41h0"/>
      <path class="cls-6" d="M7.9,78.4h.02s.02,0,.03,0c.06,0,.21,0,.4-.02.64-.04,1.26-.15,1.85-.33,0,0,.01,0,.02,0,0,0,0,0,0,0h0s0,0,.01,0c0,0-.01,0-.02,0,.06-.02.13-.04.19-.07.1-.03.2-.07.29-.1.03-.01.05-.03.08-.04.19-.08.37-.16.56-.25.06-.03.13-.06.19-.09.46-.25.89-.54,1.29-.87.02-.02.05-.03.07-.05.06-.05.12-.11.17-.16.06-.06.12-.12.18-.17.08-.07.16-.15.24-.22.02-.02.05-.04.07-.07.04-.04.06-.08.1-.12.15-.17.3-.35.44-.53.03-.04.07-.08.1-.12.03-.04.06-.09.08-.13.04-.06.09-.13.13-.19.09-.14.18-.28.26-.43.03-.06.06-.11.1-.17.11-.2.21-.41.3-.62.01-.03.02-.05.03-.08.08-.19.15-.38.21-.58.02-.06.04-.13.06-.19.05-.17.09-.34.13-.52.01-.06.03-.13.04-.19.04-.19.07-.39.09-.59,0-.02,0-.05.01-.07.02-.19.03-.38.04-.57,0-.03,0-.06,0-.09h0s0,0,0,0c0,0,0,0,0,0,0-.06,0-.13,0-.2h0c0-.25-.01-.48-.04-.72,0-.06-.01-.13-.02-.19-.02-.19-.05-.38-.09-.57,0-.04-.01-.09-.02-.13-.05-.23-.1-.45-.17-.67-.01-.05-.03-.1-.05-.15-.06-.17-.12-.35-.19-.52-.02-.05-.04-.1-.06-.15,0,0,0-.01,0-.02-.09-.21-.19-.41-.29-.61-.01-.02-.03-.04-.04-.07-.07-.13-.15-.26-.22-.38-.02-.03-.04-.06-.07-.09-.09-.13-.18-.26-.27-.39-.06-.09-.12-.17-.19-.26-.1-.13-.21-.25-.32-.37-.07-.07-.13-.15-.2-.22-.13-.13-.27-.26-.41-.38-.06-.05-.11-.1-.17-.15-.21-.17-.42-.33-.64-.48-.18-.12-.36-.23-.55-.33-.06-.03-.12-.07-.19-.1-.15-.08-.3-.15-.46-.22-.05-.02-.11-.05-.16-.07-.2-.08-.4-.16-.61-.22-.07-.02-.14-.04-.2-.06-.16-.05-.32-.09-.48-.12-.07-.02-.14-.03-.21-.05-.22-.04-.44-.08-.66-.1-.06,0-.12,0-.18-.01-.12-.01-.23-.02-.35-.03-.1,0-.2,0-.31,0h-.01s-.03,0-.04,0h0c-.23,0-.45.01-.68.03-.08,0-.17.02-.25.03-.16.02-.31.04-.47.07-.09.02-.18.03-.27.05-.15.03-.3.07-.44.11-.08.02-.17.04-.25.07-.02,0-.04.01-.06.02-.06.02-.12.05-.18.07-.18.07-.36.13-.53.21-.09.04-.17.08-.26.12-.16.08-.31.16-.47.25-.09.05-.17.1-.25.15-.15.09-.29.19-.43.29-.08.06-.16.12-.23.18-.14.11-.27.22-.41.34-.05.04-.1.08-.14.12-.02.02-.03.04-.05.06-.23.22-.45.45-.65.7-.02.03-.04.06-.06.08-.18.22-.34.46-.49.7-.02.03-.05.06-.07.1h0c-.08.13-.15.26-.22.39-.1.19-.19.38-.28.58-.02.05-.04.11-.06.16-.07.16-.13.33-.18.5-.02.06-.04.12-.06.18-.06.21-.12.43-.17.65,0,.05-.02.1-.02.14-.04.18-.06.37-.09.56,0,.07-.02.13-.02.2-.02.22-.03.45-.04.68H0v.04H0c0,4.33,3.5,7.84,7.83,7.84h.02s.03,0,.04,0h0"/>
      <polyline class="cls-6" points="10.21 78.03 10.21 78.03 10.21 78.03 10.21 78.03 10.21 78.03"/>
      <path class="cls-6" d="M.34,68.29H.34c.02-.06.04-.12.06-.18H.39c-.02.06-.04.12-.06.18"/>
      <path class="cls-6" d="M1.01,66.71c-.03.05-.06.1-.09.16,0,0,0,0,0,0,.07-.13.14-.26.22-.39h0c-.05.07-.09.15-.13.23"/>
      <path class="cls-6" d="M.14,69.08H.14s.02-.09.03-.14c0,0,0,0,0,0,0,.05-.02.1-.03.14"/>
      <path class="cls-6" d="M.04,69.84H.04c0-.07.01-.13.02-.2,0,.07-.02.13-.02.2"/>
      <path class="cls-6" d="M.58,67.61s0,0,0,0c.02-.05.04-.11.06-.16h0c-.02.05-.04.1-.06.16"/>
      <path class="cls-6" d="M7.8,62.72s.03,0,.04,0h0,0s-.03,0-.04,0"/>
      <path class="cls-6" d="M10.21,78.03s.01,0,.01,0c.06-.02.12-.04.18-.06-.06.02-.13.05-.19.07"/>
      <path class="cls-6" d="M12.88,76.56s-.05.03-.07.05c.02-.02.04-.03.07-.05,0,0,0,0,0,0"/>
      <path class="cls-6" d="M13.24,76.22c-.06.06-.12.12-.18.17,0,0,0,0,0,0,.06-.05.12-.11.18-.17"/>
      <path class="cls-6" d="M15.51,68.94h0s.01.09.02.13c0,0,0,0,0,0,0-.04-.01-.09-.02-.13"/>
      <path class="cls-6" d="M15.68,70.56h0s0,0,0,0c0,.07,0,.13,0,.2h0s0,0,0,0c0-.07,0-.13,0-.2"/>
      <path class="cls-6" d="M15.29,68.13s0,0,0,0c.02.05.03.1.05.15h0c-.01-.05-.03-.1-.05-.15"/>
      <path class="cls-6" d="M15.04,67.46s.04.1.06.15c-.02-.05-.04-.1-.06-.15"/>
      <path class="cls-6" d="M15.62,69.65h0c0,.06.01.12.02.19h0c0-.06-.01-.12-.02-.19"/>
      <path class="cls-6" d="M15.36,72.78s0,0,0,0c-.02.06-.04.13-.06.19h0c.02-.06.04-.12.06-.19"/>
      <path class="cls-6" d="M15.62,71.48s0-.05.01-.07c0,.02,0,.05-.01.07"/>
      <path class="cls-6" d="M15.53,72.07s0,0,0,0c-.01.06-.03.13-.04.19,0,0,0,0,0,0,.01-.06.03-.12.04-.17"/>
      <path class="cls-6" d="M15.68,70.75s0,.06,0,.09c0-.03,0-.05,0-.08h0"/>
    </g>
  </g>
</svg>